HIERARCHY
ROOT Hips
{
    OFFSET   0.000000   0.000000   0.000000
    CHANNELS 6 Xposition Yposition Zposition Zrotation Xrotation Yrotation
    JOINT Chest
    {
        OFFSET   0.000000   8.007230   0.000000
        CHANNELS 3 Zrotation Xrotation Yrotation
        JOINT Chest2
        {
            OFFSET   0.000000  22.077100   0.000000
            CHANNELS 3 Zrotation Xrotation Yrotation
            JOINT Neck
            {
                OFFSET   0.000000  23.254700   0.000000
                CHANNELS 3 Zrotation Xrotation Yrotation
                JOINT Head
                {
                    OFFSET   0.000010  14.370000   1.956610
                    CHANNELS 3 Zrotation Xrotation Yrotation
                    End Site
                    {
                        OFFSET   0.000000  19.566000   0.000000
                    }
                }
            }
            JOINT LeftCollar
            {
                OFFSET   3.911900  19.017000  -0.467063
                CHANNELS 3 Zrotation Xrotation Yrotation
                JOINT LeftShoulder
                {
                    OFFSET  10.383700   0.000000   0.000000
                    CHANNELS 3 Zrotation Xrotation Yrotation
                    JOINT LeftElbow
                    {
                        OFFSET  26.662100   0.001671   0.000522
                        CHANNELS 3 Zrotation Xrotation Yrotation
                        JOINT LeftWrist
                        {
                            OFFSET  28.869000   0.000037  -0.000114
                            CHANNELS 3 Zrotation Xrotation Yrotation
                            JOINT LeftFinger0
                            {
                                OFFSET   2.044650  -2.323450   3.252850
                                CHANNELS 3 Zrotation Xrotation Yrotation
                                JOINT LeftFinger01
                                {
                                    OFFSET   3.088140   0.000000   0.000000
                                    CHANNELS 3 Zrotation Xrotation Yrotation
                                    JOINT LeftFinger02
                                    {
                                        OFFSET   2.639460   0.000000   0.000000
                                        CHANNELS 3 Zrotation Xrotation Yrotation
                                        End Site
                                        {
                                            OFFSET   2.582190   0.000000   0.000000
                                        }
                                    }
                                }
                            }
                            JOINT LeftFinger1
                            {
                                OFFSET   8.364480   0.000000   3.252850
                                CHANNELS 3 Zrotation Xrotation Yrotation
                                JOINT LeftFinger11
                                {
                                    OFFSET   4.646930   0.000000   0.000000
                                    CHANNELS 3 Zrotation Xrotation Yrotation
                                    JOINT LeftFinger12
                                    {
                                        OFFSET   2.323470   0.000000   0.000000
                                        CHANNELS 3 Zrotation Xrotation Yrotation
                                        End Site
                                        {
                                            OFFSET   2.273050   0.000000   0.000000
                                        }
                                    }
                                }
                            }
                            JOINT LeftFinger2
                            {
                                OFFSET   8.364490   0.000016   1.078090
                                CHANNELS 3 Zrotation Xrotation Yrotation
                                JOINT LeftFinger21
                                {
                                    OFFSET   5.111620   0.000000   0.000000
                                    CHANNELS 3 Zrotation Xrotation Yrotation
                                    JOINT LeftFinger22
                                    {
                                        OFFSET   2.788150   0.000013   0.000000
                                        CHANNELS 3 Zrotation Xrotation Yrotation
                                        End Site
                                        {
                                            OFFSET   2.727660   0.000000   0.000000
                                        }
                                    }
                                }
                            }
                            JOINT LeftFinger3
                            {
                                OFFSET   7.899780   0.000016  -1.078090
                                CHANNELS 3 Zrotation Xrotation Yrotation
                                JOINT LeftFinger31
                                {
                                    OFFSET   4.646930   0.000000   0.000000
                                    CHANNELS 3 Zrotation Xrotation Yrotation
                                    JOINT LeftFinger32
                                    {
                                        OFFSET   2.323470   0.000000   0.000000
                                        CHANNELS 3 Zrotation Xrotation Yrotation
                                        End Site
                                        {
                                            OFFSET   2.273050   0.000000   0.000000
                                        }
                                    }
                                }
                            }
                            JOINT LeftFinger4
                            {
                                OFFSET   7.435080   0.000000  -3.252850
                                CHANNELS 3 Zrotation Xrotation Yrotation
                                JOINT LeftFinger41
                                {
                                    OFFSET   3.717550   0.000000   0.000000
                                    CHANNELS 3 Zrotation Xrotation Yrotation
                                    JOINT LeftFinger42
                                    {
                                        OFFSET   1.858760   0.000000   0.000000
                                        CHANNELS 3 Zrotation Xrotation Yrotation
                                        End Site
                                        {
                                            OFFSET   1.818440   0.000000   0.000000
                                        }
                                    }
                                }
                            }
                        }
                    }
                }
            }
            JOINT RightCollar
            {
                OFFSET  -3.911900  19.017000  -0.467064
                CHANNELS 3 Zrotation Xrotation Yrotation
                JOINT RightShoulder
                {
                    OFFSET -10.383700   0.000000   0.000000
                    CHANNELS 3 Zrotation Xrotation Yrotation
                    JOINT RightElbow
                    {
                        OFFSET -26.662100   0.001633   0.000260
                        CHANNELS 3 Zrotation Xrotation Yrotation
                        JOINT RightWrist
                        {
                            OFFSET -28.869000  -0.000045  -0.000080
                            CHANNELS 3 Zrotation Xrotation Yrotation
                            JOINT RightFinger0
                            {
                                OFFSET  -2.044660  -2.323490   3.252850
                                CHANNELS 3 Zrotation Xrotation Yrotation
                                JOINT RightFinger01
                                {
                                    OFFSET  -3.088140   0.000000   0.000000
                                    CHANNELS 3 Zrotation Xrotation Yrotation
                                    JOINT RightFinger02
                                    {
                                        OFFSET  -2.639450   0.000000   0.000000
                                        CHANNELS 3 Zrotation Xrotation Yrotation
                                        End Site
                                        {
                                            OFFSET  -2.582190   0.000000   0.000000
                                        }
                                    }
                                }
                            }
                            JOINT RightFinger1
                            {
                                OFFSET  -8.364480   0.000000   3.252850
                                CHANNELS 3 Zrotation Xrotation Yrotation
                                JOINT RightFinger11
                                {
                                    OFFSET  -4.646920   0.000000   0.000000
                                    CHANNELS 3 Zrotation Xrotation Yrotation
                                    JOINT RightFinger12
                                    {
                                        OFFSET  -2.323470   0.000000   0.000000
                                        CHANNELS 3 Zrotation Xrotation Yrotation
                                        End Site
                                        {
                                            OFFSET  -2.273050   0.000000   0.000000
                                        }
                                    }
                                }
                            }
                            JOINT RightFinger2
                            {
                                OFFSET  -8.364480   0.000000   1.078090
                                CHANNELS 3 Zrotation Xrotation Yrotation
                                JOINT RightFinger21
                                {
                                    OFFSET  -5.111610   0.000000   0.000000
                                    CHANNELS 3 Zrotation Xrotation Yrotation
                                    JOINT RightFinger22
                                    {
                                        OFFSET  -2.788160   0.000000   0.000000
                                        CHANNELS 3 Zrotation Xrotation Yrotation
                                        End Site
                                        {
                                            OFFSET  -2.727660   0.000000   0.000000
                                        }
                                    }
                                }
                            }
                            JOINT RightFinger3
                            {
                                OFFSET  -7.899780   0.000000  -1.078090
                                CHANNELS 3 Zrotation Xrotation Yrotation
                                JOINT RightFinger31
                                {
                                    OFFSET  -4.646930   0.000000   0.000000
                                    CHANNELS 3 Zrotation Xrotation Yrotation
                                    JOINT RightFinger32
                                    {
                                        OFFSET  -2.323470   0.000000   0.000000
                                        CHANNELS 3 Zrotation Xrotation Yrotation
                                        End Site
                                        {
                                            OFFSET  -2.273050   0.000000   0.000000
                                        }
                                    }
                                }
                            }
                            JOINT RightFinger4
                            {
                                OFFSET  -7.435090   0.000000  -3.252850
                                CHANNELS 3 Zrotation Xrotation Yrotation
                                JOINT RightFinger41
                                {
                                    OFFSET  -3.717550   0.000000   0.000000
                                    CHANNELS 3 Zrotation Xrotation Yrotation
                                    JOINT RightFinger42
                                    {
                                        OFFSET  -1.858760   0.000000   0.000000
                                        CHANNELS 3 Zrotation Xrotation Yrotation
                                        End Site
                                        {
                                            OFFSET  -1.818440   0.000000   0.000000
                                        }
                                    }
                                }
                            }
                        }
                    }
                }
            }
        }
    }
    JOINT LeftHip
    {
        OFFSET   9.782990   0.000000   0.000000
        CHANNELS 3 Zrotation Xrotation Yrotation
        JOINT LeftKnee
        {
            OFFSET  -0.000063 -41.789100   0.001657
            CHANNELS 3 Zrotation Xrotation Yrotation
            JOINT LeftAnkle
            {
                OFFSET   0.000078 -41.133200  -0.000113
                CHANNELS 3 Zrotation Xrotation Yrotation
                JOINT LeftToe
                {
                    OFFSET   0.000000  -6.358970  14.674500
                    CHANNELS 3 Zrotation Xrotation Yrotation
                    End Site
                    {
                        OFFSET   0.000000   0.000000   3.913200
                    }
                }
            }
        }
    }
    JOINT RightHip
    {
        OFFSET  -9.782990   0.000000   0.000000
        CHANNELS 3 Zrotation Xrotation Yrotation
        JOINT RightKnee
        {
            OFFSET   0.000053 -41.789200   0.000277
            CHANNELS 3 Zrotation Xrotation Yrotation
            JOINT RightAnkle
            {
                OFFSET   0.000030 -41.133200  -0.000150
                CHANNELS 3 Zrotation Xrotation Yrotation
                JOINT RightToe
                {
                    OFFSET   0.000000  -6.358960  14.674500
                    CHANNELS 3 Zrotation Xrotation Yrotation
                    End Site
                    {
                        OFFSET   0.000000   0.000000   3.913200
                    }
                }
            }
        }
    }
}
MOTION
Frames: 4
Frame Time:   0.016667
 -0.575805  89.556000  -2.299870  -0.813017 -17.050300   7.168220   0.342499   9.027520   0.776458   0.570107  18.058800   1.526470  -0.151247  -0.582207  -0.005213  -0.248598  -1.180560   3.006620   3.252290   2.106220   0.537527 -44.799800  -0.219426 -84.689300  15.345800 -29.412000 -96.689600   0.221118 -41.652400  12.548000  41.823000  32.322200 -60.609200 -27.379300   0.005760   0.003062  -8.689650   0.005001  -0.000896 -22.582300  -0.889951   2.137700 -18.490000   0.005305  -0.000960 -12.943000   0.002631   0.012352 -28.268700  -3.233200   5.988000 -35.491400   0.000966  -0.000900 -23.637300  -0.004104   0.001187 -27.659700  -3.169160   6.022080 -30.934600  -0.003715   0.008917 -20.602400  -0.006973   0.001918  -9.276370  -1.101010   6.713380 -14.011800  -0.002825   0.001196  -9.331870   0.002288  -0.001555   2.318800   1.023490   5.574250  70.665700  24.310100   2.017410   1.353140  -5.527670  14.348800 -12.796200  -7.686650   1.507450 -37.663800  29.437800  63.364300  29.995700   0.020444  -0.025982   9.997850   0.008764  -0.035762  30.004200   7.717150  13.091200  25.271700  -0.003542   0.001161  17.690300  -0.002422   0.000841  28.398000   5.013030   9.171760  42.900700  -0.157705   0.045052  28.571700   0.000614   0.030652  28.309700   4.224620   7.786510  37.400300  -0.132880   0.027332  24.908600  -0.007118   0.104607  36.443900  -0.102167  -0.148842  54.666200   0.000000   0.002093  36.407700   0.001543   0.005308   2.987930  16.965400   0.373423   1.413660   0.474330  -0.495676  -2.036430  -1.381490  -2.444570   0.000000   0.000000  -0.000000   4.663530  18.173800  -5.450390   0.397965   3.017490  -9.823070  -2.012530  -5.603350  -2.347820   0.000000   0.000000  -0.000000
 -0.563715  89.556600  -2.323480  -0.834311 -16.953200   7.121190   0.338144   9.003350   0.763128   0.563722  18.010400   1.500020  -0.170800  -0.612828  -0.005343  -0.280580  -1.242790   2.977730   3.248980   2.119780   0.518262 -44.799400  -0.213955 -84.777400  15.413400 -29.496300 -96.652600   0.393179 -41.635000  12.605600  41.719200  32.282300 -60.731900 -27.463000   0.005764   0.003035  -8.731520   0.005084  -0.000863 -22.725700  -0.877227   2.096310 -18.606800   0.005271  -0.000908 -13.024800   0.002629   0.012238 -28.266300  -3.306740   6.123590 -35.531100   0.000988  -0.000890 -23.663800  -0.004270   0.001193 -27.678000  -3.243570   6.157220 -31.088400  -0.003892   0.008773 -20.704800  -0.006848   0.001724  -9.483300  -1.151070   6.861250 -14.328800  -0.003128   0.001316  -9.542980   0.002235  -0.001580   2.318990   1.026750   5.585280  70.727500  24.247300   1.959490   1.382080  -5.508350  14.356800 -12.784800  -7.662430   1.524690 -37.654000  29.423900  63.367200  29.995300   0.008694  -0.041964   9.997650  -0.006774  -0.046889  30.006700   7.716650  13.089600  25.274400  -0.003457   0.001091  17.692100  -0.002367   0.000789  28.398000   5.012970   9.171210  42.901100  -0.107305   0.020714  28.572000   0.000772   0.036497  28.310300   4.218470   7.775200  37.392100  -0.068650   0.007650  24.903400  -0.007117   0.056621  36.438600  -0.101864  -0.146570  54.658100   0.000000   0.002123  36.402300   0.001620   0.005363   2.998510  16.903400   0.370264   1.379640   0.381918  -0.472584  -2.028300  -1.322800  -2.419240  -0.000000   0.000000   0.000000   4.622310  18.083600  -5.471060   0.422747   2.959410  -9.767710  -2.019210  -5.549210  -2.324050  -0.000000   0.000000   0.000000
 -0.551880  89.557300  -2.344870  -0.857522 -16.863100   7.061110   0.334452   8.981640   0.746468   0.559199  17.966900   1.466670  -0.194154  -0.642956  -0.005475  -0.319006  -1.303990   2.930310   3.241840   2.129640   0.498996 -44.794900  -0.198270 -84.850700  15.483600 -29.573300 -96.623300   0.576277 -41.627700  12.657400  41.609400  32.215400 -60.825200 -27.546800   0.005769   0.003007  -8.773380   0.005164  -0.000830 -22.850900  -0.852297   2.021230 -18.708300   0.005236  -0.000855 -13.095800   0.002628   0.012119 -28.262700  -3.356960   6.216350 -35.562900   0.001007  -0.000879 -23.684900  -0.004436   0.001197 -27.692500  -3.294810   6.249450 -31.207100  -0.004060   0.008625 -20.783900  -0.006720   0.001533  -9.635790  -1.187870   6.961830 -14.562300  -0.003431   0.001434  -9.698480   0.002176  -0.001604   2.322850   1.029070   5.604810  70.790600  24.202600   1.899930   1.404660  -5.468070  14.367800 -12.776700  -7.655960   1.540120 -37.640500  29.411400  63.371100  29.995200  -0.003685  -0.057946   9.997610  -0.022311  -0.055960  30.013900   7.713080  13.079700  25.281400  -0.003372   0.001021  17.697000  -0.002315   0.000735  28.398000   5.012910   9.170740  42.904300  -0.037588  -0.003624  28.574300   0.000929   0.037332  28.312600   4.205920   7.751970  37.389600  -0.007564  -0.004040  24.901900  -0.007103   0.004805  36.436600  -0.101600  -0.144596  54.655100   0.000000   0.002153  36.400300   0.001697   0.005417   3.007140  16.847200   0.368609   1.345480   0.299437  -0.440211  -2.017040  -1.272150  -2.390020  -0.000000   0.000000   0.000000   4.581680  17.994700  -5.491460   0.444794   2.912290  -9.715230  -2.024390  -5.500060  -2.278210  -0.000000   0.000000   0.000000
 -0.540660  89.558100  -2.365110  -0.882762 -16.776900   6.991520   0.330923   8.963420   0.717000   0.557053  17.930300   1.407190  -0.215476  -0.676190  -0.005629  -0.354174  -1.371170   2.903200   3.232410   2.124150   0.513105 -44.775500  -0.164422 -84.908300  15.554000 -29.656500 -96.597200   0.782602 -41.666900  12.704300  41.491200  32.094900 -60.921000 -27.544800   0.005770   0.003039  -8.772380   0.005230  -0.000799 -22.931500  -0.823332   1.945550 -18.773500   0.005205  -0.000800 -13.141500   0.002627   0.011999 -28.251900  -3.397070   6.292770 -35.513000   0.001031  -0.000870 -23.651700  -0.004613   0.001198 -27.704200  -3.336360   6.325120 -31.298700  -0.004209   0.008471 -20.844900  -0.006599   0.001347  -9.751240  -1.215430   7.044480 -14.740900  -0.003742   0.001553  -9.817420   0.002114  -0.001627   2.333180   1.032440   5.627730  70.834700  24.208400   1.867370   1.425620  -5.415890  14.369800 -12.762700  -7.663200   1.542540 -37.607800  29.392300  63.382900  30.022600  -0.004419  -0.034091  10.011300  -0.015668  -0.029074  30.035500   7.700480  13.048000  25.296200  -0.003301   0.000947  17.707400  -0.002268   0.000681  28.397900   5.012870   9.170330  42.915900  -0.012174  -0.003543  28.582100   0.001080   0.020655  28.316800   4.186470   7.715610  37.395800  -0.000704  -0.003953  24.905900  -0.006913   0.000456  36.444200  -0.101353  -0.142535  54.666400   0.000000   0.002191  36.407900   0.001774   0.005460   3.013060  16.788000   0.368653   1.313610   0.236327  -0.404428  -2.008550  -1.233080  -2.356420  -0.000000   0.000000   0.000000   4.543340  17.900400  -5.502000   0.462662   2.879660  -9.674330  -2.029350  -5.455350  -2.226460  -0.000000   0.000000  -0.000000
